<?xml version="1.0" encoding="utf-8"?>
<!-- Generator: Adobe Illustrator 22.0.1, SVG Export Plug-In . SVG Version: 6.00 Build 0)  -->
<svg version="1.1" id="Calque_1" xmlns="http://www.w3.org/2000/svg" xmlns:xlink="http://www.w3.org/1999/xlink" x="0px" y="0px"
	 viewBox="0 0 64 64.1" style="enable-background:new 0 0 64 64.1;" xml:space="preserve">
<g transform="translate(0.000000,1253.000000) scale(0.100000,-0.100000)">
	<path d="M358.6,12519.7c-0.9-0.3-2.3-0.9-3.1-1.3c-0.8-0.4-2.6-0.7-3.9-0.7c-1.4,0.1-4.2-0.6-7.1-1.6c-2.6-0.9-6.2-2-8-2.3
		c-3.5-0.7-5.7-1.2-11.2-2.6c-3.1-0.8-4-1.3-6.7-4.1c-1.7-1.8-3.4-3.2-3.9-3.2c-1.8,0-2.1-1.3-1.4-5.4c0.6-3.7,0.6-4.1-0.6-6.6
		c-1-2.1-1.2-2.9-0.7-3.9c0.3-0.6,0.6-2.9,0.6-4.9c0-2.2,0.3-4.1,0.7-4.5c0.5-0.5,0.5-0.8,0-1.3c-0.4-0.4-0.7-1.5-0.7-2.6
		c0-1-0.3-3.4-0.7-5.2c-0.6-3-0.6-3.3,0.4-4c1-0.8,1-0.8,0-1.5c-0.7-0.5-1.1-1.7-1.3-3.9c-0.2-2.8-0.1-3.3,1-4.4
		c1.5-1.5,3.8-4.1,3.8-4.5c0-0.1-0.5-0.1-1.1,0.1s-1.1,0.6-1.1,1c0,1-0.8,1.4-2.4,1c-1.4-0.4-3.1-3.2-4-6.6c-0.4-1.7-1-2.5-2.4-3.4
		c-1-0.6-3.6-2.6-5.7-4.6c-6.6-5.9-12.5-9.3-15.2-8.6c-0.7,0.2-1.8-0.1-2.5-0.6c-0.7-0.4-1.6-0.8-2.1-0.8s-2.5-0.5-4.4-1.1
		c-1.9-0.6-3.9-1-4.3-0.8c-1.2,0.5-6.7-1.3-8.5-2.8c-0.9-0.7-1.8-1.3-2-1.3c-0.2,0-1.5-0.9-2.8-1.9c-1.3-1-2.6-1.9-3-1.9
		c-0.4,0-1.3-0.5-2.1-1.1c-0.8-0.6-1.7-1.1-2-1.1c-0.4,0-1.9-0.6-3.4-1.2c-2.9-1.4-3-1.5-6.2-9.5c-2.4-6.1-2.5-6.7-1.4-8.9
		c1.1-2,4.4-3,10.5-3c4.7-0.1,3.6-0.9-1.3-1c-1.7,0-3.5-0.4-4.1-0.8c-0.6-0.4-1.6-0.8-2.3-0.8c-0.7,0-2.2-1.2-3.7-2.8
		c-3-3.1-7.1-5.2-11.6-5.9c-3-0.5-3.3-0.4-7.3,1.6c-2.3,1.2-4.9,2.1-5.8,2.1s-2.1,0.3-2.8,0.6c-0.7,0.4-1.9,0.4-3.4,0.1
		c-4-0.8-11.7,0.2-15.6,2.2c-3.1,1.5-3.8,1.7-6.6,1.3c-2-0.2-3.6-0.8-4.3-1.4c-0.7-0.6-1.6-1.1-2.1-1.1c-0.8,0-0.9,0.3-0.7,1.6
		c0.3,1.2,0,2.1-1,3.5c-3,4.2-5.8,8.5-5.8,9.1c0,0.4,0.6,0.9,1.4,1.2s1.4,0.9,1.4,1.3c0,0.4,0.4,0.9,0.8,1.1c1.1,0.4,1,1.3-0.3,3.9
		c-0.6,1.2-1.1,2.4-1.1,2.8c0,0.3-1.4,0.9-3.1,1.3c-3.7,0.8-6.9,0.1-8.7-1.9c-1.2-1.3-5.6-2.6-6.1-1.8c-0.2,0.3-0.8,0.5-1.3,0.5
		c-0.6,0-1.1,0.2-1.2,0.6c-0.1,0.3-1.5,0.8-3.1,1.1c-1.7,0.3-3.6,1-4.2,1.7c-0.7,0.6-1.5,1-1.9,1c-0.4-0.1-1.3,0.1-1.9,0.5
		c-1.9,1-3-0.2-2.6-2.7c0.3-1.8,0.6-2.1,2.5-2.6c2.3-0.7,2.4-0.8,2.9-4c0.3-1.7,0.1-2.3-1-3.7c-1.7-2-1.8-3.2-0.3-3.9
		c1-0.6,1.3-1.4,2.2-7.1c0.6-3.3,1-4.2,1.8-3.7c0.3,0.2,0.9-0.1,1.4-0.7c2.4-3.1,4.6-6.8,5-8.3c0.2-0.9,0.9-2.1,1.5-2.9
		c1-1.2,1.2-1.9,1-6.8c-0.1-5.4,0.6-9.3,1.7-9.3c0.8,0-0.1-9.5-1-10.5c-0.7-0.8-0.7-1,0.1-1.6c0.6-0.4,0.8-1.7,0.8-3.5
		c0-3.1,0.3-3.8,1.8-4.4c0.5-0.2,0.9-0.9,0.9-1.5c0-0.7,0.7-1.5,1.7-2.1c0.9-0.5,1.7-1.3,1.7-1.6c0-0.9-2.4-1.5-4.6-1
		c-1.2,0.2-2.5,0-3.7-0.6c-2.7-1.4-7.8-1.7-9.6-0.5c-1.5,1-1.8,2.4-0.5,3.3c1.3,0.9,0.1,3.9-1.3,3.2c-0.6-0.3-2.1-0.7-3.5-0.9
		c-1.9-0.3-2.8-0.8-3.7-2c-0.7-0.9-1.2-1.8-1.2-2.1s-1.2-0.4-2.7-0.2c-2.3,0.2-2.8,0.1-3.3-0.9c-1.2-2.1-3.9-1.8-3.9,0.6
		c0,0.6-0.4,1-1.1,1c-0.6,0-1.1,0.2-1.1,0.6c0,0.3-0.4,1-0.9,1.7c-0.9,1.1-0.9,1.1-2.5-0.4c-1.2-1.1-2-1.4-3.7-1.4
		c-1.7,0.1-2.3-0.1-2.6-0.9c-0.5-1.4-1.9-2.9-2.8-2.9c-0.4,0-1.8-1.1-3-2.5c-1.2-1.4-2.6-2.5-3.1-2.5c-0.5,0-1.3-0.3-1.7-0.7
		c-0.6-0.6-0.7-0.5-0.6,0.4c0.2,2,0,2.5-1.1,2.5c-0.6,0-1.3,0.3-1.5,0.7c-0.2,0.4-0.9,0.9-1.4,1.1c-0.7,0.2-1,0.9-1,2.3
		c0,1.9-1.5,4.1-2.8,4.1c-0.3,0-0.6,0.4-0.6,0.8c0,0.5-0.6,1.1-1.4,1.4c-1.2,0.4-1.3,0.8-1,1.9c0.4,1.8-0.6,3.1-2.2,2.7
		c-0.8-0.2-1.5,0.1-1.9,0.6c-0.5,0.6-0.6,0.9-0.1,0.9c0.3,0,0.6,0.6,0.6,1.4c0,1.2-0.2,1.4-1.8,1.4c-1.8,0-1.8,0.1-1.7,2.2
		c0.1,1.2,0.1,2.2-0.1,2.2c-0.2,0-1.4-0.6-2.9-1.3c-2.3-1.2-2.8-1.3-3.5-0.6c-1.2,1-2,1-2.6-0.2c-0.3-0.6-1.2-0.9-2.2-0.9
		c-0.9,0-1.8-0.3-2-0.8c-0.2-0.4-0.7-0.7-1.2-0.7s-1.3-0.4-1.7-0.9c-0.4-0.7-0.7-0.7-0.8-0.3c0,1.5-5.7,2.9-6.3,1.5
		c-0.2-0.4-1.2-1.2-2.4-1.7c-1.8-0.8-2-1-1.3-1.5c0.5-0.4,0.8-1.1,0.7-1.6c-0.1-0.6,0.2-1,0.7-1c1.3,0,1.7-1.1,0.6-1.9
		c-0.7-0.5-0.9-1.2-0.7-2.1c0.3-1.8,0.3-1.8-1.5-0.6c-0.8,0.5-1.7,0.8-2.1,0.6c-0.4-0.2-1.3,0.1-2,0.6c-0.7,0.4-1.8,0.7-2.5,0.6
		c-0.7-0.1-1.5,0-1.7,0.2c-0.9,1.4-4.1-1.4-4.1-3.7c0-1.5,0-1.5-0.7-0.3c-0.4,0.9-0.9,1.2-1.6,1c-0.8-0.2-1,0.2-1.3,1.9
		c-0.3,2.1-0.4,2.2-2.1,1.9c-0.9-0.2-2.3-0.8-3-1.2c-0.7-0.4-2.6-0.9-4.1-1c-2.2-0.1-3-0.4-3.9-1.6c-1.1-1.3-3.6-1.9-3.6-0.8
		c0,0.3-0.7,0.8-1.4,1.2c-1.1,0.4-1.8,0.3-2.8-0.3c-0.7-0.4-1.6-0.8-2-0.8c-0.4,0-1.2-0.5-1.7-1.2c-0.8-0.8-1.4-1-2.6-0.8
		c-1.8,0.4-3.9-0.5-3.9-1.7c0-0.4-0.3-0.7-0.6-0.5c-0.3,0.2-0.7-0.1-0.9-0.8c-0.2-0.8-0.9-1.3-2.5-1.5c-3.3-0.6-6-3.6-5.9-6.5
		c0.1-1.3-0.1-2.9-0.3-3.7c-0.2-0.8-0.1-2.3,0.2-3.2c0.3-0.9,0.4-1.5,0.1-1.4c-0.9,0.6-1-0.7-0.2-2.4c0.7-1.4,1.2-1.7,2.5-1.7
		c0.9,0,2,0.4,2.3,0.8c0.5,0.7,0.9,0.7,2.5,0.2c1-0.4,2-0.7,2-0.7s0.2-0.7,0.4-1.5c0.3-1.2,0.2-1.4-0.5-1.2c-0.6,0.2-1-0.1-1.4-1.2
		c-0.8-2.1-0.7-2.5,0.7-2.2c1,0.3,1.4,0,2-1.3c0.4-0.9,0.7-2.3,0.6-3.1c-0.3-2.4,0.9-2.1,2.6,0.6c1.5,2.5,1.7,2.5,3.8,2.2
		c1.2-0.2,2.4-0.7,2.6-1.1c0.2-0.4,1-0.8,1.8-0.8c1.4,0,2.5-2.1,2.5-5c0-2-0.4-2.3-2.2-1.4c-1.4,0.7-2.3,0.6-9.6-1.1
		c-4.5-1-8.4-1.8-8.7-1.8s-0.6-0.2-0.7-0.6c0-0.3-0.2-0.8-0.4-1c-0.9-0.8-0.4-1.3,1.9-1.9c1.3-0.3,3.1-0.9,4-1.4
		c1-0.4,2.3-0.6,2.9-0.4c2.6,0.7,7.6-4.4,8.9-9.3c0.5-1.8,0.5-2.4,0-2.7c-0.4-0.2-0.6-1-0.4-1.7c0.1-1.1,0.6-1.4,2.9-1.8
		c5.4-0.8,8,0.1,8,2.9c0,0.9,2,2.3,3.5,2.3c0.4,0,1-0.3,1.4-0.8c0.4-0.5,1.2-0.6,2.4-0.4c1.4,0.3,1.8,0.7,1.9,1.9
		c0.2,1.3,1.2,2.2,1.2,1c0-0.3,0.9-1.9,2.1-3.7c2.1-3.2,2.1-3.3,4.9-3.4c1.7-0.1,3,0.1,3.2,0.4c0.3,0.4,0.8,0.3,1.7-0.6
		c0.7-0.6,1.4-1.1,1.7-1c1.4,0.3,7.4-1.4,7.7-2.2c0.2-0.5,0.9-1.5,1.5-2.4c1.1-1.3,1.4-1.4,3.3-1c1.2,0.3,2,0.3,2,0s0.7-0.5,1.6-0.5
		c1.7,0,3.9-1.5,7.1-5c1.7-1.8,1.8-2.1,1.7-5.8c-0.1-2.1,0.1-4.2,0.3-4.5c0.4-0.7,4.2-1,4.2-0.3c0,0.2-0.5,0.9-1.1,1.5
		c-0.6,0.6-1.3,1.9-1.4,2.9c-0.3,1.7-0.3,1.8,2,2c3.1,0.3,4.9,0.2,4.9-0.3c0-0.2,0.3-0.4,0.7-0.4c1.4,0,4.8-1.9,5.2-2.9
		c0.5-1.7,2.3-2.3,4.7-1.6c1.2,0.3,2.8,0.5,3.5,0.3c0.9-0.2,1.4-0.1,1.4,0.3s0.5,0.5,1.3,0.3c0.7-0.2,1.5-0.1,1.7,0.3
		c0.2,0.3,0.9,0.4,1.7,0.3c0.7-0.2,1.4-0.1,1.6,0.3c0.7,1,1.6,0.7,1.3-0.5c-0.2-0.6-0.1-1.3,0.2-1.4c0.3-0.2,0.3-0.9,0.2-1.7
		c-0.3-1-0.1-1.4,0.9-1.8c1.2-0.4,1.1-0.6-1-1.9c-1.2-0.8-2.5-1.5-2.8-1.5c-0.3,0-0.6-0.4-0.6-0.8c0-0.4,0.2-0.8,0.5-0.8
		c0.9,0,2.3-1.7,2.3-2.8c0-0.6-0.5-1.1-1.1-1.3c-1.9-0.5-1.2-1.4,2.1-2.9c1.7-0.8,3.3-1.6,3.6-1.7c0.2-0.1,0.6,0.3,0.8,0.9
		c0.4,1.2,0.5,1.1,2.8-0.6c2.8-2,3.5-2,5.8-0.3s2.8,1.7,2.3-0.1c-0.2-0.8-0.1-1.8,0.2-2.1c0.9-1,0.1-3.6-1.1-3.6
		c-0.5,0-1.4-0.5-2-1.2c-1-1.1-1-1.2-0.1-1.9c0.6-0.4,2-0.8,3.3-1c3.8-0.6,5.5-1.4,7.2-3.5l1.7-1.9l-1.2-0.9
		c-0.7-0.5-1.3-1.7-1.5-2.6c-0.2-1-1.5-2.9-3-4.5c-2.5-2.6-2.6-2.9-2.4-5.3c0.3-2.4,0.6-2.8,3.1-4.7c3.4-2.5,4.5-3.7,5.2-5.7
		c0.3-0.8,0.9-1.5,1.4-1.5c0.5,0,1.3-0.8,1.8-1.8c0.5-1,1.1-1.9,1.3-2.1c0.7-0.6,1.9-3.4,2.8-6.7c0.7-2.5,1.2-3.6,1.9-3.7
		c0.9-0.2,4.4-2.5,6.9-4.6c0.4-0.3,2.4-0.9,4.4-1.2c3.5-0.6,3.6-0.7,4.2-2.5s0.7-1.9,3.9-2.2c3-0.3,3.3-0.4,4-2
		c0.8-1.8,2-2.4,2.4-1.2c0.1,0.3,0.9-0.1,1.8-0.8c2-1.7,2.5-1.8,2.5-0.3c0,1.6,2.3,2.4,3,1.1c0.3-0.8,0-1.4-1.3-2.7
		c-1-0.9-2-1.7-2.3-1.7c-0.3,0-0.5-0.6-0.5-1.3c0-0.8-0.2-1.5-0.6-1.7c-0.9-0.6-0.6-2.5,0.4-2.8c2.3-0.8,3.4-1.6,3.1-2.3
		c-0.2-0.4,0.2-0.9,0.8-1c0.6-0.2,1.1-0.6,1.1-1c0-0.4,0.5-1.3,1.1-2.1c1.3-1.6,1.4-3.1,0.3-3.1c-1.2,0-1.5-0.9-0.8-2.3
		c0.6-1.1,0.6-1.2-0.2-0.6c-0.7,0.6-1,0.6-1.3,0.1c-0.2-0.4,0.1-1,0.8-1.7c0.7-0.5,1.2-1.2,1.2-1.6c0-1.2-1.7-3.9-2.4-3.8
		c-2.2,0.3-2.8-1-1.2-2.7c1-1,1-1-2.8-2.1c-1.4-0.4-1.7-0.8-1.8-2.4c-0.1-1-0.1-2.7,0.2-3.7c0.3-1.5,0.6-1.8,1.4-1.6
		c0.6,0.2,1.4-0.1,1.8-0.6c1-1.2,6.3-4.5,7.2-4.5c0.4,0,1.2-0.8,1.7-1.9c0.9-2,2.1-3.2,2.9-3c0.6,0.2,1.6-0.7,5.6-4.4
		c2.9-2.8,3.6-4.4,5.3-12.5c0.5-2.4,1.2-5.4,1.5-6.6c0.3-1.2,0.7-3.3,0.9-4.7c0.6-3.2,1-4.4,2.4-5.9c0.6-0.7,0.9-1.2,0.6-1.2
		c-1.8,0-4.9,6.9-6.1,13.3c-0.4,2.4-1.3,5.3-1.9,6.6c-1,2-6.5,7.9-8.5,9.1c-0.3,0.2-1.8,1.3-3.1,2.5c-1.9,1.7-2.3,2.2-1.6,2.6
		c0.7,0.4,0.7,0.7,0,1.9c-1,1.9-2,1.6-4.2-1.6c-1.8-2.6-1.8-2.8-1.8-8.3c0-3-0.3-8.8-0.8-12.7c-0.4-3.9-1.2-11.7-1.7-17.4
		c-0.5-5.6-1.3-13.3-1.7-17.1c-0.8-6.6-0.7-8.8,0.4-8.8c0.3,0,0.5,0.1,0.6,0.2c0,0.1,0.2,1.2,0.3,2.5c0.2,1.5,0.9,3.2,1.8,4.4
		c0.9,1.1,1.7,2.3,1.8,2.8c0.3,1,5.9-4.3,5.9-5.6c0-0.7-0.5-0.9-2.5-0.9c-1.4,0-2.5,0.3-2.5,0.6c0,0.3-0.7,0.6-1.6,0.6
		c-1.7,0-2.3-0.8-2.3-2.9c0-0.7-0.6-2.3-1.4-3.5c-0.9-1.7-1.3-2.8-1-3.7c0.2-0.7-0.1-4-0.5-7.3c-0.5-3.3-1-7.4-1.2-9.3
		c-0.6-5.6-3-19.2-4.7-26.9c-0.9-4-1.9-8.6-2.2-10.3c-0.3-1.7-0.8-4.3-1.1-5.8c-0.5-2.7-5.5-11.8-7.8-14.4c-0.7-0.7-2.2-1.7-3.5-2.4
		l-2.4-1.1l1.1-2.1c1-2.1,1.1-2.1,3.1-1.5c1.6,0.5,2,0.5,2.3-0.1c0.3-1.1,2.4-2.9,3.3-2.9c0.4,0,0.9,0.5,1,1.1
		c0.3,1.2,1.1,1.4,3,0.6c0.7-0.3,1.9-0.7,2.8-0.8c1.4-0.3,1.5-0.5,1.5-3.8c0-2.9-0.3-3.8-1.7-5.9c-2-3-2-3.5-0.4-4.6
		c2.2-1.6,3.7-1.2,4.7,1.3c1,2.6,2.9,3.1,2.5,0.7c-0.3-1.9,0.4-2.5,4-3.4c1.5-0.4,3-0.9,3.4-1.2c0.4-0.3,0.9-0.4,1.2-0.2
		c0.3,0.2,1.2-0.1,2-0.5c0.9-0.4,1.9-0.8,2.1-0.8c0.3,0,1.5-0.7,2.7-1.4c2-1.4,2.4-1.4,6.7-1.1l4.5,0.4l0.4-2.3
		c0.3-1.8,0.7-2.4,1.8-2.8c0.8-0.3,2.8-2,4.6-3.9c2.7-2.9,3.2-3.3,3.8-2.5c0.5,0.6,1.3,0.7,3.3,0.5c2.3-0.2,2.8-0.1,4.7,1.4
		c1.2,0.9,2.3,1.7,2.5,1.7c0.2,0,1.7-0.4,3.3-1c2.2-0.8,3.2-1.5,4.4-3.4c0.8-1.3,2.4-3.1,3.4-4.2c2.1-2.3,4-2.5,8.7-0.8
		c4.5,1.5,7.6,1.5,9.2-0.3c1.5-1.7,2.5-1.7,4.4-0.2c1,0.8,1.7,0.9,2.4,0.6c0.6-0.3,4-0.6,7.6-0.7l6.6-0.2l0.2,1.5
		c0.1,0.9-0.2,2.1-0.7,2.9c-0.7,1-0.7,1.6-0.3,2.4c0.3,0.6,0.6,1.6,0.6,2.2c0,1.6,1.8,1.9,4,0.6c1-0.6,2.3-1.1,2.9-1.1
		c0.7,0,2.1-0.5,3.3-1.1c1.2-0.6,2.8-1.1,3.6-1.1c2.5,0,8.4-2.5,8.6-3.6c0.3-1.9,3-2.6,5.1-1.3c1.9,1.2,4.7,0.2,6.9-2.7
		c1.1-1.4,2.1-3.3,2.3-4.1c0.4-2.3,2.4-1.9,3.1,0.5c0.2,0.7,0.6,1.2,0.8,1.2c0.2-0.1,0.9,0.1,1.7,0.3c0.9,0.3,1.6,0.2,2.3-0.4
		c0.6-0.5,2.3-1,3.9-1.3c3.3-0.4,4.5-1.7,3.5-3.7c-1.3-2.6-1.3-4.1,0-5c0.7-0.5,1.7-0.9,2.1-0.9c0.6,0,2.4-0.6,4.1-1.2
		c2.9-1.1,3.3-1.4,4.3-3.9c0.6-1.4,1.5-2.8,2.1-2.9c1.7-0.6,4.1,0.2,6.6,2c1.6,1.2,2.6,1.5,3.5,1.3c0.7-0.2,1.5-0.1,1.7,0.3
		c0.2,0.3,0.8,0.5,1.3,0.3c0.6-0.1,1.8-0.4,2.9-0.6c1.1-0.2,3.1-1.2,4.4-2.3c1.3-1,3.3-2.2,4.3-2.5c1.6-0.6,2-0.5,2.6,0.3
		c0.7,0.9,0.8,0.9,2,0.1c0.7-0.5,1.8-0.9,2.5-0.9c1,0,1.3,0.3,1.3,1.5c0,2.3,2.2,4.2,4.4,3.8c1.3-0.3,2-0.1,3.3,1
		c0.8,0.7,2.3,1.5,3.2,1.7s1.7,0.6,1.9,0.8c0.2,0.2,1.6,0.3,3.2,0.1c2.4-0.2,3.1-0.5,3.5-1.5c0.7-1.5,1.1-1.6,2.7-0.7
		c1,0.5,1,0.7,0.3,1.5c-0.4,0.5-1,1.5-1.2,2.1c-0.2,0.7-1.1,1.5-2,1.9c-2.7,1.2-2.8,1.8-2.2,14c0.3,6.1,0.4,11.7,0.2,12.3
		c-0.4,1.4,0.6,5.5,2.1,8.8c2.6,5.7,9.5,12.8,13.8,14.3c1.3,0.4,2.3,0.4,4-0.2c2.2-0.7,2.3-0.7,3.6,0.8c3,3.5,6.2,6.8,6.8,6.8
		c1,0,6.5,3.9,8.9,6.3c2.9,2.9,7.4,4.8,10.4,4.6c2.3-0.2,2.4-0.2,2.4-2c0-2.9,1.8-3.9,8-4.5c2.9-0.3,6.6-0.4,8.3-0.2
		c3.3,0.3,5.2-0.3,6.3-2.1c0.4-0.7,0.4-1.1-0.2-1.4c-1.1-0.7-0.3-2.1,1.4-2.9c0.9-0.3,3.3-0.7,5.4-0.7c2.1-0.1,4.5-0.3,5.1-0.6
		c1.2-0.4,1.3-0.3,1.2,1.2c-0.2,2,0.4,3,2.8,4.2l1.9,1l1.5-1.8c0.9-1,1.5-2.3,1.6-2.8c0-1.9,1.4-2.5,6.6-2.6c4.3-0.1,5.2,0.1,6.4,1
		c1.8,1.4,2.1,1.4,3.3-0.2c0.6-1,0.7-1.7,0.3-2.3s-0.3-1.3,0.1-1.9c0.4-0.7,0.3-1.3-0.4-2.4c-0.5-0.8-0.8-1.7-0.7-1.9
		c0.1-0.2,1.8-0.4,3.7-0.4c1.9,0.1,3.8-0.2,4.2-0.4c0.4-0.3,0.9-0.3,1.4,0.1c0.5,0.4,1.2,0.1,2.5-1.3c2.1-2.1,2.5-2.3,3-1
		c0.4,1,2,1.1,2,0.1c0-1.1,1.3-2,3-2.1c0.8-0.1,1.7-0.4,1.8-0.8c0.2-0.4,0.6-0.7,1-0.7c0.5,0,0.7-0.6,0.7-1.5
		c-0.1-1.2,0.3-1.7,1.4-2.3c1.4-0.7,1.7-0.7,2.5,0.1c0.6,0.5,1.5,0.7,2.4,0.6c1.7-0.3,2.5,0.6,1.6,1.8c-0.6,0.7-0.5,0.8,0.6,0.8
		c0.7,0,1.7-0.6,2.2-1.2c0.8-1,1.2-1.2,1.7-0.6c1.2,1.2,3.3,0.9,3.3-0.4c0-0.7-0.4-1.1-0.9-1.1c-1.5,0-0.5-1.3,1.3-1.7
		c2-0.4,2.5,0.1,2,1.8c-0.2,0.7,0,1.7,0.5,2.4c1.1,1.7,3.9,1.9,6.7,0.5c2.3-1.1,3.4-0.7,3.6,1.3c0.2,1.5,0.4,1.6,4,2.1
		c2.1,0.3,3.9,0.9,4.1,1.3c0.3,0.8,1.5,0.9,2.9,0c0.9-0.6,1.2-0.4,2.3,0.9c0.7,0.9,1.3,2,1.3,2.5c0,0.4,0.3,1.4,0.7,2.1
		c0.9,1.7,0.4,3.1-1,2.7c-0.6-0.1-1.4-0.1-1.8,0.2c-0.5,0.3-0.6,0.5-0.1,0.5c1.2,0,4.5,4,4.8,5.8c0.3,1.7,0.4,1.8,3.5,1.7
		c2.9-0.1,3.3,0,4.7,1.6c0.8,0.9,1.5,2.1,1.5,2.6c0,0.5,0.4,1.1,0.9,1.3c0.6,0.2,0.7,0.7,0.6,1.3c-0.4,1.4,1.6,3.4,2.5,2.4
		c0.9-0.9,2.1-0.8,2.1,0.1c0,1.2,1.8,1.7,2.3,0.6c0.6-0.9,1.9-1.1,2.3-0.3c0.2,0.2,0,1.2-0.3,2.1c-0.5,1.3-0.4,1.9,0.4,3.1
		c0.5,0.8,1.3,1.5,1.8,1.5c0.4,0,1.5,0.8,2.3,1.7c1,1,1.7,1.5,1.9,1.1c0.6-0.9,2-0.7,2,0.2c0,1.1,2,2,3.4,1.6
		c1.3-0.4,2.1,0.5,2.1,2.6c0,0.8,0.3,1.7,0.6,1.8c0.3,0.2,0.6-0.2,0.6-0.7c0-0.6,0.3-1.4,0.8-1.7c0.7-0.6,1-0.4,1.7,0.7
		c0.6,0.9,1.5,1.4,2.3,1.4h1.3l-1.4,3.1c-1.7,3.8-1.7,4-0.1,5.2c0.8,0.6,1.5,1.7,1.8,2.3c0.2,0.7,1.4,2.3,2.8,3.6
		c1.3,1.3,2.4,2.9,2.4,3.4c0,0.5,0.5,1.3,1.1,1.9c1.5,1.3,1.5,4,0,4.8c-0.8,0.4-1,0.9-0.8,1.9c0.3,1.5-0.6,3.6-1.5,3.6
		c-0.4,0-1.2-0.5-1.8-1c-0.7-0.6-2.4-1.3-3.9-1.7c-8.8-2-8-2-9-0.6c-0.6,0.7-1.4,1.2-2,1.1c-0.6-0.1-1.8,0.3-2.6,1
		c-0.9,0.7-1.9,1.2-2.3,1.2s-1,0.4-1.4,0.8c-0.4,0.4-1.2,0.8-1.9,0.8c-0.7,0-1.7,0.5-2.3,1.2c-0.7,0.8-1.4,1-2.5,0.8
		c-1.3-0.3-1.7-0.1-2.4,1.5c-0.5,0.9-1.7,2.6-2.5,3.7c-0.9,1-1.6,2.2-1.6,2.5c0,0.4-0.3,0.8-0.8,0.9c-1.2,0.4-0.4,2.6,1.1,3.2
		c1.8,0.6,1.7,1-0.6,3.8c-1,1.3-1.9,2.5-1.9,2.8c0,0.2,0.7,1.3,1.5,2.3c2.8,3.4,4.1,5.5,3.7,6.3c-0.5,1.3,1.8,3.1,3.6,2.9
		c2.1-0.3,2.5,0.3,1.1,2.3c-0.7,0.9-1.2,2-1.2,2.5c0,0.5-0.3,1.4-0.6,2c-0.4,0.7-0.4,1.4-0.1,2c0.4,0.8,0.2,1.4-1.3,2.8
		c-1.6,1.5-2,1.7-4.2,1.4c-2-0.3-2.9-0.1-5.2,1.3l-2.9,1.7l0.1,3.3c0,3.8-0.7,5-3,5c-1.3,0-1.6,0.2-1.6,1.3c0,0.7-0.4,1.6-0.9,2
		c-0.7,0.7-0.7,0.9,0.7,2c0.8,0.7,2,1.3,2.6,1.3c0.6,0,1.6,0.4,2.1,0.8c0.9,0.7,1.3,0.7,2.8-0.3c1-0.6,2.1-1.1,2.5-1.1
		c0.4,0,2,1.4,3.6,3.1c2.7,2.9,3.1,3.1,5.3,3.2c2,0,2.6,0.3,3.7,1.5c1,1.4,1.1,1.8,0.6,3.5c-0.6,1.8-0.4,2.1,0.8,3.7
		c0.8,1,1.5,2.7,1.7,3.7c0.2,1.6,0.1,2-0.9,2.3c-0.7,0.2-2.8,2-4.8,3.9l-3.6,3.6l-0.4,3.9c-0.3,3.5-0.5,4-1.5,4.1
		c-0.7,0.1-1.7,0.7-2.2,1.3c-0.5,0.6-1.2,1-1.6,1c-1.4,0-3,2.5-3.3,5.2c-0.2,1.5-0.1,3,0.1,3.3c0.7,0.8,3.4,1.9,4.7,1.9
		c1.9,0,3.5,1.4,4.7,4c1.5,3.1,1.4,4.2-0.3,7.4c-2,3.7-3.9,5.6-4.7,4.7c-0.4-0.4-0.8-0.7-1-0.7c-0.4,0-0.3,2.2,0.3,3.4
		c0.6,1.4,0.1,1.9-2.6,2.6l-2.4,0.7l0.5,2.8c0.3,1.6,0.9,3.3,1.3,3.7c1,1.2,1,4-0.1,4.9c-1.5,1.3-1.9,2.6-1.2,3.8
		c0.5,0.8,0.4,1.2-0.3,2c-0.8,0.9-1.7,0.9-6.9,0.7c-5.7-0.3-6.1-0.4-9.8-2.5c-3.3-1.9-4-2.1-4.6-1.4c-0.9,1.2-3,0.9-4-0.4
		c-0.4-0.7-1.3-1.8-1.9-2.5c-1-1.1-1-1.4-0.4-2.8c1.5-3.1,1.5-3.9,0.2-4.6c-0.7-0.3-2-1.3-2.8-2c-1.3-1.2-2-1.4-5.1-1.5
		c-3.1-0.1-3.6,0.1-3.6,0.9c0,0.6-0.3,1.5-0.6,2.1c-0.5,0.9-0.3,1.2,2.1,1.9c4.5,1.3,5.1,1.8,4.4,3.4c-0.5,1-0.4,1.7,0.6,3.6
		c1.5,3,1.5,4.4-0.3,5.8c-2.5,2-1.9,6.3,1.3,9.8c0.7,0.8,0.8,1.3,0.3,2c-0.6,0.9-0.1,1.5,3,4.6c2,2,5.3,4.7,7.3,6
		c4.3,2.9,4.5,3.1,4.2,4.9c-0.1,0.8,0.1,2.6,0.4,4c0.4,1.9,0.4,3.1,0,4.2c-0.8,2.3,0.4,3.6,5.3,5.2c4.9,1.7,7.2,3.6,7.2,6.2
		c0,1.2,0.3,1.8,1,2c1.4,0.4,10.5,10.5,10.9,12.2c0.2,0.8,0.9,1.7,1.6,2c0.7,0.3,1.5,0.8,1.8,1.3c0.2,0.4,0.9,0.9,1.4,1.1
		c1.3,0.4,1.2,1.2-0.2,2.6c-1,1-1.5,1.1-4.5,0.8l-3.4-0.4l1.2,1.7c0.7,0.9,2.1,2.4,3.1,3.1c1.6,1.2,1.8,1.6,1.4,2.8
		c-0.4,1-0.3,1.4,0.4,1.8c0.6,0.3,1.3,0.3,1.8,0.1c0.4-0.3,2-0.3,3.5-0.2l2.7,0.3l-0.2-1.8c-0.2-1.6,0.1-1.9,1.8-2.9
		c1.7-0.9,2.1-1,3.9-0.4c1.5,0.6,2.3,0.6,3.3,0c1-0.6,1.4-0.4,2.8,0.9c0.9,0.8,1.6,1.9,1.6,2.3s0.5,0.7,1.1,0.7
		c1.2,0,3.3,2.9,3.3,4.5c0,0.6,0.7,1.4,1.4,1.9c1.2,0.8,1.4,1.2,1,2.9c-0.2,1.1-1,2.6-1.8,3.5c-1.2,1.3-1.4,1.8-1,3.6
		c0.2,1.2,0.5,3.3,0.6,4.6c0.1,1.4,0.4,3.2,0.8,4c0.3,0.8,0.6,2.4,0.6,3.5c0,1.2,0.6,3.2,1.4,4.6c1.7,3.1,1.7,4.8,0.3,6.7
		c-2.1,2.6-0.8,9.3,2.8,14.7c0.6,0.8,1.1,2,1.3,2.9c0.2,0.9,1.1,2.6,2,4c1.6,2.3,1.7,2.5,0.8,3.7c-0.8,1.2-0.8,1.5,0.6,4.8
		c1,2.5,1.5,4.7,1.6,7.2c0.1,4.4,0.6,5.3,4.7,9.6c1.8,1.9,3.5,4.1,3.8,4.8c0.3,0.9,0.9,1.4,1.7,1.4c0.6,0,1.4,0.5,1.8,1.1
		c0.4,0.6,1,1.1,1.4,1.1c1.1,0,2.9,2.3,2.9,3.7c0,1.8,2.5,6.6,4.5,8.7c0.9,1,1.4,1.9,1.2,2c-0.3,0.2-1.9,0.5-3.5,0.7
		c-1.7,0.2-3.6,0.8-4.4,1.3c-2.2,1.5-6.8,3.6-8.3,3.7c-0.8,0.1-1.7-0.2-2-0.4c-0.5-0.4-1.1-0.3-1.9,0.2c-0.9,0.6-2.3,0.8-4.7,0.6
		c-3.2-0.2-3.5-0.1-4.8,1.2c-1,1.1-1.7,1.4-2.6,1.2c-1-0.3-1.5,0-2.3,1.2c-0.6,0.8-1.2,2.3-1.4,3.2c-0.2,1.2-0.7,1.7-1.7,1.8
		c-0.8,0.1-1.6,0.4-1.9,0.7c-0.9,0.9-2.9,0.6-3.3-0.6c-0.2-0.6-0.9-1.4-1.5-1.7c-0.7-0.4-1.4-1-1.7-1.4c-0.6-1-6.1-0.6-7.8,0.6
		c-1.7,1.1-2.8,1.1-3.3,0.1c-0.6-1.4-1.2-0.9-1.8,1.5c-0.6,2-1,2.5-3.3,3.5c-1.4,0.6-3.5,1.1-4.6,1.1c-1.8-0.1-1.9-0.2-1.8-1.8
		c0.1-1-0.2-2-0.7-2.4c-0.6-0.5-0.8-0.5-0.8-0.1c0,0.3-0.9,0.6-2,0.6c-1.9,0-1.9,0.1-1.6,1.6c0.3,1.3,0.1,1.7-0.7,1.9
		c-0.6,0.2-1.3,1-1.4,1.8c-0.2,0.8-1.4,2.5-2.6,3.8c-1.4,1.5-2.3,3.1-2.5,4.4c-0.2,1.1-0.5,2.1-0.8,2.3c-0.3,0.2-0.9,1.3-1.5,2.6
		c-1.3,2.9-4.9,5-7.6,4.4c-1.2-0.2-2.4,0.1-4.4,1.2c-3.3,1.8-5.9,1.5-9.3-0.6c-1.2-0.8-3-1.5-4-1.7c-1.5-0.2-1.9-0.1-3,1.4
		c-0.9,1.3-1.7,1.7-2.9,1.7s-2.1,0.5-3.2,1.7c-1.3,1.7-1.7,1.8-5.7,1.9c-3.7,0.2-4.4,0-4.9-0.9c-0.5-0.7-1.1-0.9-2.1-0.7
		c-0.9,0.2-1.7-0.1-2.1-0.6c-0.9-1-2.8-1.2-3-0.2c-1.7,6.3-2,6.9-3.9,7.8c-1.2,0.5-2.5,0.7-3.2,0.5c-1-0.3-1.1-0.2-0.5,0.4
		c1,1,0.8,1.7-1,3.7c-1.4,1.4-1.8,1.7-2.7,1.2c-1.5-0.8-3.9,0.5-6.3,3.6c-1.2,1.4-2.4,2.5-2.9,2.5c-0.4,0-1.4,0.5-2.3,1.2
		c-1.5,1-1.7,1.1-3.6,0.3c-1.4-0.6-2.3-0.7-2.8-0.3c-0.7,0.6-0.7,4.2,0,7.5c0.4,2-0.8,4.4-2.6,5c-0.8,0.2-0.9,0.6-0.7,1.2
		c0.2,0.6,0.8,2.6,1.4,4.7c0.5,2,1.2,4,1.5,4.4c0.3,0.4,0.7,1.6,0.9,2.7c0.4,2,0.3,2-1.7,2.6c-1.8,0.5-2.3,0.4-3.5-0.6
		c-2.8-2.2-5.1-5.3-5.1-7c0-2.6-1.1-5.1-2.3-5.1c-1.3,0-4-1.3-5.9-2.8c-1.7-1.3-3.5-1.3-7.7,0.1c-2.8,0.9-3.7,1-5.2,0.6
		c-2.3-0.8-4.1,0.3-4.4,2.8c-0.3,1.5,0,2.1,1.5,3.5l1.9,1.7l-0.9,2.6c-0.8,2-1.3,2.6-2.2,2.6c-1.1,0-1.2,0.2-0.7,1.4
		c0.3,0.8,0.6,1.9,0.6,2.5c0,0.6,0.6,1.9,1.4,2.9c1.7,2.2,1.7,2.6,0.3,3.9c-0.9,0.8-1.3,0.9-1.8,0.4c-0.9-0.9-1.4-0.8-1.8,0.4
		c-0.2,0.6-1.4,1.9-2.7,3l-2.4,2l-2.9-0.9c-2.6-0.8-3-0.8-4.4,0c-0.8,0.5-2.5,0.9-3.7,0.9c-1.8,0-2.5-0.3-3.4-1.5
		c-1.2-1.5-1.2-1.5-2-0.4c-0.6,0.7-0.8,1.8-0.6,3c0.4,2.8-0.7,6.7-2.3,8.4c-1.1,1.2-1.9,1.5-3.8,1.5c-2.1,0-2.4,0.1-2.4,1.4
		c0,1.5-1.6,1.9-2.7,0.6c-0.3-0.4-1.4-0.9-2.4-1.1c-2.1-0.4-5.3,1.1-5.6,2.7c-0.1,0.6-0.5,2.6-0.9,4.4c-0.4,1.8-0.7,4.2-0.6,5.3
		c0.1,1.4-0.4,2.5-1.4,4c-0.9,1-2,2.7-2.5,3.6c-1.2,2-2.4,2.6-3.8,1.8c-0.6-0.4-1.6-0.7-2.2-0.7c-1.9,0-6-2.6-6-3.8
		c0-1.8-1.4-2.5-2.9-1.5c-0.7,0.5-1.8,0.9-2.5,0.9c-0.7,0-1.3,0.3-1.3,0.8c0,0.4-0.4,1.1-0.9,1.5c-0.5,0.4-1.5,1.7-2.2,2.8
		c-0.8,1.3-1.8,2.1-2.9,2.4c-2.6,0.6-2.9,1.2-2.9,6.6c0,0.9,0.2,2.5,0.4,3.5c0.3,1.5,0.1,2.1-1.2,3.4c-0.9,0.9-1.6,2.4-1.8,3.8
		C361.4,12519.9,360.7,12520.4,358.6,12519.7z M573.7,12338.7c0-0.3-0.1-0.6-0.2-0.6c-0.2,0-0.4,0.3-0.6,0.6
		c-0.2,0.3-0.1,0.6,0.2,0.6C573.4,12339.2,573.7,12339,573.7,12338.7z M17.9,12313.9c0-0.3-0.2-0.7-0.6-0.9
		c-0.3-0.2-0.6-0.9-0.6-1.6c0-1.2,0.3-1.3,2.3-1.3c1.4-0.1,2.3,0.2,2.5,0.8c0.2,0.4,0.6,0.8,0.8,0.8c0.3,0,0.4-0.4,0.2-0.9
		c-0.2-0.5-0.1-1.1,0.3-1.3c1.3-0.8-2.4-1.8-3.7-1c-0.7,0.3-1.9,0.5-2.6,0.4c-0.8-0.2-1.3-0.1-1.2,0.2c0.6,0.8-0.9,1.2-1.8,0.4
		c-0.8-0.7-0.8-0.6-0.4,1.2c0.2,1,0.8,2.4,1.3,2.9C15.3,12314.5,17.9,12314.8,17.9,12313.9z M449.7,12307.8c0-0.6-2.2-1.9-2.6-1.4
		c-0.2,0.2-0.2,0.7,0,1.2C447.5,12308.4,449.7,12308.7,449.7,12307.8z M100,12258c1.4-0.7,1.5-1.1,1.3-2.4c-0.5-2-0.5-2-2.4-1.2
		c-1.3,0.6-1.8,0.6-2.5,0s-0.9-0.4-1.3,0.6c-0.6,1.6,0.3,3.1,1.9,3.4c0.6,0.1,1.2,0.3,1.3,0.3C98.3,12258.8,99,12258.4,100,12258z
		 M93.3,12255.5c-1-0.7-1.7-0.7-1.7,0c0,0.3,0.6,0.6,1.3,0.6C93.9,12256.1,94,12255.9,93.3,12255.5z M138.2,12235.7
		c0.2-0.3-0.2-0.4-0.9-0.3c-1.7,0.3-2,0.8-0.6,0.8C137.3,12236.2,138,12236,138.2,12235.7z M133.4,12235.3c-0.6-0.6-4.2-1.2-4.2-0.8
		c0,0.3,0.4,0.6,1,0.7C131.5,12235.7,133.8,12235.7,133.4,12235.3z M524.4,12123.5c0.2-1.8,0.1-3.3-0.2-3.5
		c-0.4-0.4-0.7,0.7-0.9,2.9c-0.2,1.9-0.4,4-0.7,4.6c-0.3,1-0.3,1,0.5,0.1C523.6,12126.9,524.2,12125.1,524.4,12123.5z M546,12037.5
		c-0.6-0.6-1.4,0.4-1.1,1.3c0.3,0.8,0.4,0.8,0.8-0.1C546,12038.2,546.1,12037.7,546,12037.5z M442,11973.5c0-0.3-0.1-0.6-0.2-0.6
		c-0.2,0-0.4,0.3-0.6,0.6c-0.2,0.3-0.1,0.6,0.2,0.6C441.7,11974,442,11973.8,442,11973.5z M446.4,11970.4c-0.4-0.4-1-0.8-1.5-0.8
		c-0.7,0-0.7,0.2-0.2,0.8c0.4,0.4,1,0.8,1.5,0.8C447,11971.3,447,11971.1,446.4,11970.4z M413.3,11964.9c-1.2-1-2.4-1.9-2.8-1.9
		s0,0.5,0.9,1c0.9,0.6,1.8,1.5,2.1,1.9c0.3,0.5,0.8,0.9,1.2,0.9S414.4,11966,413.3,11964.9z M385.8,11941.5c0-0.3-0.2-0.4-0.6-0.2
		c-0.3,0.2-0.6,0.6-0.6,0.9c0,0.3,0.3,0.4,0.6,0.2C385.6,11942.2,385.8,11941.7,385.8,11941.5z M383.6,11928.6
		c-0.4-0.4-0.6-1.5-0.4-2.3c0.3-1.5-1-2.5-1.8-1.3c-0.4,0.7,1.5,4.4,2.4,4.4C384.1,11929.4,384,11929,383.6,11928.6z M334.9,11902.5
		c-0.4-0.4-1.4,0.6-1,1.1c0.2,0.3,0.5,0.3,0.8-0.2C334.9,11903.1,335,11902.6,334.9,11902.5z"/>
	<path d="M556.6,12180c0-0.3,0.4-0.6,0.9-0.6c0.4,0,0.7,0.3,0.5,0.6c-0.2,0.3-0.6,0.6-0.9,0.6
		C556.8,12180.6,556.6,12180.4,556.6,12180z"/>
	<path d="M551.6,12178.1c-1.6-1.7-2.1-1.9-3.6-1.6c-1.5,0.3-2,0-3.6-1.8c-1-1.2-2.5-3.3-3.3-4.8s-1.8-3.1-2.3-3.7
		c-0.9-1-2.4-5.3-1.9-5.8c0.1-0.2,1.3,1.8,2.6,4.4c3.1,6.1,6.7,10.2,8.9,10.2c1.2,0,2.4,0.7,4.2,2.5c1.6,1.5,2.3,2.5,1.7,2.5
		C553.9,12180,552.6,12179.2,551.6,12178.1z"/>
	<path d="M565.2,12177.4c-0.6-0.7,0.3-1.3,1.9-1.3c2,0,7.3-2.6,6.8-3.3c-0.2-0.3-0.7-0.6-1.1-0.6c-1.7,0-1.2-0.9,0.6-0.9
		c1-0.1,2,0.2,2.2,0.4c0.4,0.7-1.3,3.3-2.2,3.3c-0.4,0-1.3,0.4-2,1C570.1,12177.1,565.8,12178,565.2,12177.4z"/>
	<path d="M536.2,12157.7c0-0.5,0.3-0.8,0.6-0.7s0.6,0.4,0.6,0.7s-0.3,0.6-0.6,0.7S536.2,12158.2,536.2,12157.7z"/>
</g>
</svg>
